<svg xmlns="http://www.w3.org/2000/svg" width="25.943" height="25.943" viewBox="0 0 25.943 25.943">
  <g id="edit-role" transform="translate(-50.028 -232.528)">
    <g id="Icon_feather-settings" data-name="Icon feather-settings" transform="translate(42 227.5)">
      <path id="Pfad_31705" data-name="Pfad 31705" d="M21.525,16.737a1.8,1.8,0,0,0,.359,1.981l.065.065a2.178,2.178,0,1,1-3.08,3.08L18.8,21.8a1.81,1.81,0,0,0-3.069,1.284v.185a2.177,2.177,0,0,1-4.353,0v-.1a1.8,1.8,0,0,0-1.175-1.643,1.8,1.8,0,0,0-1.981.359l-.065.065a2.178,2.178,0,1,1-3.08-3.08l.065-.065a1.81,1.81,0,0,0-1.284-3.069H3.677a2.177,2.177,0,0,1,0-4.353h.1a1.8,1.8,0,0,0,1.643-1.175,1.8,1.8,0,0,0-.359-1.981l-.065-.065a2.178,2.178,0,1,1,3.08-3.08l.065.065a1.8,1.8,0,0,0,1.981.359h.087a1.8,1.8,0,0,0,1.088-1.643V3.677a2.177,2.177,0,0,1,4.353,0v.1a1.81,1.81,0,0,0,3.069,1.284l.065-.065a2.178,2.178,0,1,1,3.08,3.08l-.065.065a1.8,1.8,0,0,0-.359,1.981v.087a1.8,1.8,0,0,0,1.643,1.088h.185a2.177,2.177,0,1,1,0,4.353h-.1a1.8,1.8,0,0,0-1.643,1.088Z" transform="translate(7.528 4.528)" fill="none" stroke="#000" stroke-linecap="round" stroke-linejoin="round" stroke-width="2"/>
    </g>
    <path id="profile-visibility" d="M4.322,4.939a2.47,2.47,0,1,0-2.47-2.47A2.469,2.469,0,0,0,4.322,4.939Zm1.729.617H5.728a3.359,3.359,0,0,1-2.813,0H2.593A2.594,2.594,0,0,0,0,8.15v.8a.926.926,0,0,0,.926.926H7.718a.926.926,0,0,0,.926-.926v-.8A2.594,2.594,0,0,0,6.051,5.557Z" transform="translate(58.678 240.561)"/>
  </g>
</svg>
